<svg class="icon" viewBox="0 0 1024 1024" xmlns="http://www.w3.org/2000/svg" width="64" height="64"><defs><style/></defs><path d="M798.121 604.882a464.821 464.821 0 00-136.16-80.438 290.344 290.344 0 10-340.544 1.974A463.359 463.359 0 0027.563 956.834a43.546 43.546 0 1087.056 0A376.303 376.303 0 01490.483 580.97c1.791 0 3.656-.22 5.301-.292.915 0 1.755.292 2.67.292a374.11 374.11 0 01238.315 85.41l61.462-61.461zm-307.748-111.04a203.288 203.288 0 11203.289-203.29 203.508 203.508 0 01-203.289 203.29z"/><path d="M730.042 641.774a43.875 43.875 0 1043.875-43.875 43.875 43.875 0 00-43.949 43.875zm256.523 144.459a35.173 35.173 0 01-35.173 35.173H702.327a35.173 35.173 0 010-70.346h249.065a35.173 35.173 0 0135.173 35.173zM677.172 906.232a35.173 35.173 0 0135.173-35.174H961.41a35.173 35.173 0 010 70.31H712.345a35.173 35.173 0 01-35.21-35.136z"/><path d="M975.962 807.403a35.173 35.173 0 01-49.725 0l-81.827-81.828a35.173 35.173 0 0149.725-49.725l81.827 81.827a35.173 35.173 0 010 49.726zm-156.708 206.14a35.173 35.173 0 01-49.725 0l-81.827-81.827a35.173 35.173 0 0149.725-49.725l81.827 81.827a35.173 35.173 0 01.037 49.908z"/></svg>