<svg class="icon" viewBox="0 0 1024 1024" xmlns="http://www.w3.org/2000/svg" width="64" height="64"><defs><style/></defs><path d="M916.911 958.955H104.576c-23.208 0-42.018-18.81-42.018-42.018V216.648c0-23.207 18.81-42.019 42.018-42.019h84.035v42.02c0 54.146 43.893 98.037 98.042 98.037 54.143 0 98.038-43.89 98.038-98.038V174.63h252.105v42.02c0 54.146 43.894 98.037 98.04 98.037 54.145 0 98.041-43.89 98.041-98.038V174.63h84.036c23.205 0 42.016 18.813 42.016 42.02v700.287c-.002 23.208-18.811 42.019-42.018 42.019zm-42.018-560.23h-728.3v476.193h728.3V398.725zM370.684 594.802c11.605 0 22.107 4.704 29.712 12.307l68.331 68.331 166.37-166.37c7.603-7.604 18.107-12.31 29.707-12.31 23.209 0 42.018 18.813 42.018 42.019 0 11.602-4.703 22.108-12.306 29.71l-196.08 196.08c-7.603 7.604-18.11 12.309-29.71 12.309-11.604 0-22.107-4.706-29.713-12.309l-98.04-98.036c-7.604-7.607-12.309-18.11-12.309-29.713.001-23.207 18.815-42.018 42.02-42.018zm364.151-336.139c-23.206 0-42.017-18.812-42.017-42.014V104.601c0-23.204 18.812-42.017 42.017-42.017 23.208 0 42.018 18.813 42.018 42.017V216.65c0 23.2-18.81 42.014-42.018 42.014zm-448.184 0c-23.208 0-42.018-18.812-42.018-42.014V104.601c0-23.204 18.811-42.017 42.018-42.017 23.203 0 42.017 18.813 42.017 42.017V216.65c0 23.2-18.813 42.014-42.017 42.014z"/></svg>