<svg class="icon" viewBox="0 0 1097 1024" xmlns="http://www.w3.org/2000/svg" width="68.563" height="64"><defs><style/></defs><path d="M868.571 429.714v137.143h-91.428V429.714h91.428zm0 228.572v137.143h-91.428V658.286h91.428zm182.858-411.429H685.714V18.286h-640v868.571H0V1024h1097.143V886.857h-45.714v-640zM137.143 109.714h457.143v777.143H137.143V109.714zm548.571 228.572H960v548.571H685.714V338.286zM182.857 292.57H320V384H182.857v-91.429zm182.857 0h137.143V384H365.714v-91.429zM182.857 475.43H320v91.428H182.857V475.43zm182.857 0h137.143v91.428H365.714V475.43zM182.857 658.286H320v91.428H182.857v-91.428zm182.857 0h137.143v91.428H365.714v-91.428z"/></svg>