<svg class="icon" viewBox="0 0 1024 1024" xmlns="http://www.w3.org/2000/svg" width="600" height="600"><defs><style/></defs><path d="M896 789.333v21.334H128V768h42.667V213.333H640v213.334h213.333V768H896v42.667H640V768h256v21.333zM256 384h42.667v-85.333H256V384zm128 0h42.667v-85.333H384V384zM256 512h42.667v-85.333H256V512zm128 0h42.667v-85.333H384V512zM256 640h42.667v-85.333H256V640zm128 0h42.667v-85.333H384V640zm128-256h42.667v-85.333H512V384zm0 128h42.667v-85.333H512V512zm0 128h42.667v-85.333H512V640zm128-85.333h128V512H640v42.667zM640 640h128v-42.667H640V640zm0 85.333h128v-42.666H640v42.666zm-384 0h298.667v-42.666H256v42.666z"/></svg>