<svg class="icon" viewBox="0 0 1024 1024" xmlns="http://www.w3.org/2000/svg" width="64" height="64"><defs><style/></defs><path d="M512 85.333c235.648 0 426.667 191.019 426.667 426.667S747.648 938.667 512 938.667 85.333 747.648 85.333 512 276.352 85.333 512 85.333zm0 85.334c-188.203 0-341.333 153.13-341.333 341.333S323.797 853.333 512 853.333 853.333 700.203 853.333 512 700.203 170.667 512 170.667zM512 288c70.741 0 138.197 34.432 180.437 92.117l-68.864 50.432A137.259 137.259 0 00512 373.333 138.837 138.837 0 00373.333 512 138.837 138.837 0 00512 650.667c44.245 0 85.76-21.291 111.573-57.216l68.864 50.432A224.725 224.725 0 01512 736a224.256 224.256 0 01-224-224 224.256 224.256 0 01224-224z"/></svg>