<svg class="icon" viewBox="0 0 1024 1024" xmlns="http://www.w3.org/2000/svg" width="64" height="64"><defs><style/></defs><path d="M959.34 924.923c0 7.797-3.277 15.574-9.872 21.504-6.598 5.93-15.217 8.902-23.841 8.902H99.2c-8.62 0-17.24-2.972-23.813-8.902-6.597-5.93-9.874-13.707-9.874-21.504V188.204c0-7.802 3.277-15.571 9.874-21.506 6.573-5.925 15.194-8.905 23.813-8.905h103.806v30.664c0 50.844 46.188 92.041 103.133 92.041 56.975 0 103.13-41.198 103.13-92.04v-30.665h206.292v30.664c0 50.844 46.156 92.041 103.129 92.041 56.947 0 103.11-41.198 103.11-92.04v-30.665h103.831c8.62 0 17.239 2.98 23.837 8.905 6.595 5.934 9.872 13.703 9.872 21.506v736.72m-68.746-552.405H134.26v521.455h756.334V372.519M306.137 525.884H203.006v-92.012h103.13v92.012m0 153.373h-103.13V587.24h103.13v92.017m0 153.39h-103.13v-92.041h103.13v92.04m171.901-306.762H374.884v-92.012h103.154v92.012h-.001m0 153.373H374.884V587.24h103.154v92.017h-.001m0 153.39H374.884v-92.041h103.154v92.04h-.001m171.882-306.762H546.785v-92.012h103.134v92.012m0 153.373H546.785V587.24h103.134v92.017m0 153.39H546.785v-92.041h103.134v92.04M821.8 525.885H718.69v-92.012H821.8v92.012m0 153.373H718.69V587.24H821.8v92.017m0 153.39H718.69v-92.041H821.8v92.04M717.606 249.813c-37.37 0-67.687-27.035-67.687-60.374v-63.26c0-33.36 30.316-60.4 67.687-60.4 37.373 0 67.687 27.04 67.687 60.4v63.26c-.001 33.339-30.314 60.374-67.687 60.374m-412.531 0c-37.364 0-67.682-27.035-67.682-60.374v-63.26c0-33.36 30.313-60.4 67.682-60.4 37.376 0 67.692 27.04 67.692 60.4v63.26c0 33.339-30.316 60.374-67.692 60.374m0 0z"/></svg>