<svg class="icon" viewBox="0 0 1024 1024" xmlns="http://www.w3.org/2000/svg" width="64" height="64"><defs><style/></defs><path d="M326.268 838.786V630.929c-7.393 14.678-15.964 30.642-25.714 47.785-1.286-8.571-3.108-21.428-5.465-38.571-3.643-22.072-6.75-38.572-9.214-49.607 26.893-56.357 47.786-120.107 62.571-191.25l60.643 14.785c-1.5 4.822-2.785 9.75-3.643 14.679-4.928 15.964-11.678 37.393-20.25 64.393v345.643h-58.928zm86.464 0v-423H559.84v163.607h-88.285v31.286h75.428v57h-75.428v33.107h80.892v55.285h-80.892v82.715h-58.822zm58.822-366v49.607h36.75v-49.714l-36.75.107zm235.392 364.178c-28.178-14.678-51.535-30-69.857-45.964-22.071 18.429-48.428 35.571-79.071 51.429l-34.929-53.358c30.643-9.75 55.179-21.428 73.607-34.928-15.964-24.536-29.464-53.893-40.5-88.286l33.108-14.678h-31.286V596h159.964v51.429c-8.571 42.964-22.714 78.535-42.321 106.714 15.857 12.214 36.75 22.714 62.571 31.286-14.678 23.25-25.178 40.392-31.286 51.535zM576.34 575.75v-57h80.893v-45.964H576.34v-55.179h139.822v158.25l-139.822-.107zm82.822 75.429h-51.536c.107 1.392.75 2.785 1.821 3.642 9.75 28.179 18.965 47.786 27.536 58.822 9.964-19.822 17.357-40.822 22.179-62.464z"/><path d="M65.804 32v960h892.392V32H65.804zm655.285 80.464c30.536 0 55.286 24.75 55.286 55.286s-24.75 55.286-55.286 55.286-55.285-24.643-55.285-55.286 24.75-55.286 55.285-55.286zm-418.178 0c30.535 0 55.285 24.75 55.285 55.286s-24.75 55.286-55.285 55.286-55.286-24.75-55.286-55.286 24.75-55.286 55.286-55.286zm574.178 805.929H146.911V323.429h730.178v594.964z"/></svg>