<svg class="icon" viewBox="0 0 1024 1024" xmlns="http://www.w3.org/2000/svg" width="64" height="64"><defs><style/></defs><path d="M858.274 688.094c-54.231-46.624-93.003-170.5-93.003-316.003 0-110.145-71.216-203.516-170.273-237.706-6.66-39.734-41.167-70.096-83-70.096-41.87 0-76.356 30.36-83.036 70.096-99.055 34.19-170.251 127.56-170.251 237.706 0 145.47-38.738 269.342-92.988 315.985-30.29 26.057-47.71 63.905-47.71 103.744 0 46.36 37.775 83.945 84.419 83.945h225.13c0 46.363 37.777 83.945 84.435 83.945 46.624 0 84.417-37.583 84.417-83.945h225.132c46.625 0 84.439-37.585 84.439-83.945 0-39.824-17.42-77.688-47.711-103.726zM202.433 791.819c0-15.46 6.766-30.135 18.485-40.261 75.375-64.794 122.21-210.214 122.21-379.469 0-92.586 75.76-167.891 168.87-167.891 93.108 0 168.835 75.305 168.835 167.891 0 169.273 46.834 314.69 122.211 379.505 11.77 10.11 18.502 24.765 18.502 40.225H202.433z"/></svg>