<svg class="icon" viewBox="0 0 1025 1024" xmlns="http://www.w3.org/2000/svg" width="64.063" height="64"><defs><style/></defs><path d="M771.488 645.504c62.88 0 114.016-54.752 114.016-122.08s-51.168-122.112-114.016-122.112S657.44 456.064 657.44 523.424c0 67.328 51.136 122.08 114.048 122.08zm-13.216 178.24l105.12-149.248a366.848 366.848 0 00-91.424-11.936c-2.496 0-67.04-5.12-134.048 25.536 0 0-8.512.864-25.184 26.656-25.504 41.472-64.64 102.016-76.16 122.112-8.096 13.248-28.512 39.872-15.232 67.776 14.592 27.776 27.008 48.832 31.904 52.448h63.008c-1.248-47.776 43.072-126.24 142.016-133.344zm248.576 13.824c-19.392-33.248-62.528-100.8-65.984-106.88-4.544-8-18.752-38.432-45.28-46.688-2.88-.8-6.496-2.016-10.88-3.424l-100.672 143.04c96.128 5.824 143.68 80.832 143.68 133.344l57.696.16s6.112.608 36.224-54.016c11.2-28.736-.992-41.088-14.784-65.536z"/><path d="M936.384 59.84H88.512A88.64 88.64 0 000 148.32v690.016a88.48 88.48 0 0088.512 88.288h375.04a32.608 32.608 0 000-65.184H88.512a23.2 23.2 0 01-23.328-23.136V298.176h894.592v403.968a32.576 32.576 0 1065.184 0V148.352a88.704 88.704 0 00-88.576-88.512zm-871.2 179.264v-90.752c0-12.832 10.432-23.264 23.296-23.264h214.88c0 .256-.096.512-.096.704v43.488a28.608 28.608 0 0028.512 28.576 28.704 28.704 0 0028.576-28.704v-43.424c0-.224-.16-.448-.16-.704h307.84c0 .256-.096.48-.096.704v43.488a28.704 28.704 0 0028.576 28.576 28.8 28.8 0 0020.192-8.416 28.48 28.48 0 008.352-20.16v-43.488c0-.224-.096-.448-.096-.704h211.488c12.8 0 23.36 10.464 23.36 23.296v90.784H65.184z"/><path d="M149.12 689.376h22.304V574.4h-16.32v-43.136h16.32v-87.392h-19.072v-42.688h80.832v42.688h-19.04v87.392h15.84V574.4h-15.84v114.976h22.208v43.072H149.12v-43.072m127.328-59.264L276.48 480l27.04-32.896v139.808l-27.072 43.2m32.896 85.568l24.192-47.872V389.632h32.64v297.312l-65.856 50.624 9.024-21.888m98.496-26.304h22.272V574.4h-15.904v-43.136h15.904v-87.392H411.04v-42.688h80.896v42.688h-18.72v87.392h15.872V574.4h-15.872v114.976h21.888v43.072H407.84v-43.072"/><path d="M469.728 422.656a21.344 21.344 0 1042.656 0 21.344 21.344 0 00-42.656 0zm-78.912-.032a21.408 21.408 0 1042.784-.032 21.408 21.408 0 00-42.784.032zm-57.152-32.768a16.192 16.192 0 1032.352-.032 16.192 16.192 0 00-32.352.032zm134.304 163.072a21.504 21.504 0 1043.04 0 21.536 21.536 0 10-43.04 0zm-75.072 0a21.536 21.536 0 1043.072-.064 21.536 21.536 0 00-43.072.064zm80.864 158.016a21.632 21.632 0 1043.232-.032 21.632 21.632 0 00-43.232.032zm-87.36 0a21.632 21.632 0 0032.416 18.688 21.728 21.728 0 000-37.408 21.696 21.696 0 00-32.416 18.72zm-258.816 0a21.568 21.568 0 1043.104.096 21.568 21.568 0 00-43.104-.096zm85.984 0a21.632 21.632 0 0043.2 0 21.6 21.6 0 00-43.2 0zm-5.6-158.016a21.568 21.568 0 1043.168.032 21.568 21.568 0 00-43.168-.032zm4.288-130.304a21.408 21.408 0 1042.816 0 21.408 21.408 0 00-42.816 0zm-77.792 130.304a21.6 21.6 0 1043.168.032 21.6 21.6 0 00-43.168-.032zm-2.816-130.304a21.44 21.44 0 1042.944 0 21.44 21.44 0 00-42.944 0zm446.24 377.056h361.248v157.28H577.888z"/><path d="M843.168 669.888L895.584 684 789.28 832.992l-88.384-23.36z"/></svg>