<svg class="icon" viewBox="0 0 1024 1024" xmlns="http://www.w3.org/2000/svg" width="64" height="64"><defs><style/></defs><path d="M512.056 162.45L239.113 435.395c-17.183 17.183-45.043 17.183-62.226 0s-17.183-45.042 0-62.225L512.056 38l335.169 335.169c17.183 17.183 17.183 45.042 0 62.225-17.184 17.183-45.043 17.183-62.226 0L512.056 162.451zm0 713.38l272.943-272.943c17.183-17.183 45.042-17.183 62.226 0 17.183 17.183 17.183 45.043 0 62.226l-335.17 335.168-335.168-335.168c-17.183-17.183-17.183-45.043 0-62.226s45.043-17.183 62.226 0l272.943 272.944z"/></svg>