<svg class="icon" viewBox="0 0 1024 1024" xmlns="http://www.w3.org/2000/svg" width="64" height="64"><defs><style/></defs><path d="M640 755.2l-72.533-72.533H328.533L256 755.2V768h384v-12.8zm85.333-38.4v136.533H170.667V716.8l119.466-119.467H601.6L725.333 716.8zm-64-119.467h72.534L853.333 716.8v136.533H768V704L661.333 597.333zm-128-46.933C593.067 533.333 640 473.6 640 405.333V320c0-68.267-46.933-123.733-106.667-145.067 12.8-4.266 29.867-4.266 42.667-4.266 81.067 0 149.333 68.266 149.333 149.333v85.333c0 81.067-68.266 149.334-149.333 149.334-17.067 0-29.867-4.267-42.667-4.267zM448 170.667c81.067 0 149.333 68.266 149.333 149.333v85.333c0 81.067-68.266 149.334-149.333 149.334S298.667 486.4 298.667 405.333V320c0-81.067 68.266-149.333 149.333-149.333zM448 256c-34.133 0-64 29.867-64 64v85.333c0 34.134 29.867 64 64 64s64-29.866 64-64V320c0-34.133-29.867-64-64-64z"/></svg>