<svg class="icon" viewBox="0 0 1024 1024" xmlns="http://www.w3.org/2000/svg" width="64" height="64"><defs><style/></defs><path d="M512 170.432a117.568 117.568 0 110 235.136 117.568 117.568 0 010-235.136zm0 504c166.336 0 341.632 81.728 341.632 117.568v61.632H170.368V792c0-35.84 175.232-117.632 341.568-117.632zM512 64a223.936 223.936 0 00-224 224c0 123.776 100.224 224 224 224s224-100.224 224-224S635.776 64 512 64zm0 512c-149.504 0-448 73.536-448 219.456V960h896V795.456C960 649.536 661.504 576 512 576z"/></svg>