<svg class="icon" viewBox="0 0 1024 1024" xmlns="http://www.w3.org/2000/svg" width="64" height="64"><defs><style/></defs><path d="M477.867 452.267v-25.6h64v25.6c17.066 4.266 29.866 12.8 38.4 21.333l21.333-12.8 34.133 55.467-21.333 12.8c0 8.533 4.267 17.066 4.267 21.333s0 17.067-4.267 21.333l21.333 12.8L601.6 640l-21.333-12.8c-12.8 8.533-25.6 17.067-38.4 21.333v34.134h-64v-25.6c-17.067-4.267-29.867-12.8-38.4-21.334l-21.334 12.8L384 593.067l21.333-12.8c0-8.534-4.266-17.067-4.266-21.334s0-17.066 4.266-21.333L384 516.267l34.133-55.467 21.334 12.8c12.8-8.533 25.6-17.067 38.4-21.333zm-307.2 358.4H85.333v-320H42.667L345.6 213.333l59.733 55.467-166.4 153.6-68.266 55.467v247.466h42.666v85.334h-42.666zm686.933 0h-46.933v-85.334H857.6V477.867l-64-55.467-166.4-153.6 55.467-55.467L985.6 490.667h-42.667v320H857.6zm-85.333-320v320h-512v-320h-46.934L512 213.333l302.933 277.334h-42.666zm-426.667-12.8v247.466h341.333V477.867L512 324.267l-166.4 153.6zM512 597.333c25.6 0 42.667-17.066 42.667-42.666S537.6 512 512 512s-42.667 17.067-42.667 42.667S486.4 597.333 512 597.333z"/></svg>